<svg width="168" height="73" viewBox="0 0 168 73" fill="none" xmlns="http://www.w3.org/2000/svg">
<g clipPath="url(#clip0_954_262)">
<g clipPath="url(#clip1_954_262)">
<path d="M27.933 39.8583C27.933 41.2486 28.2382 42.3161 28.637 42.9619C29.16 43.8077 29.94 44.1661 30.7352 44.1661C31.7608 44.1661 32.6991 43.9116 34.5073 41.4107C35.9559 39.4063 37.6628 36.5927 38.8113 34.8288L40.7562 31.8404C42.1073 29.7651 43.6711 27.458 45.4641 25.8942C46.9279 24.6178 48.5069 23.9087 50.0961 23.9087C52.764 23.9087 55.3054 25.4548 57.2504 28.3545C59.3789 31.5302 60.4122 35.5303 60.4122 39.6582C60.4122 42.1122 59.9285 43.9154 59.1054 45.3399C58.3102 46.7176 56.7603 48.094 54.1531 48.094V44.1661C56.3855 44.1661 56.9427 42.1148 56.9427 39.7671C56.9427 36.4217 56.1627 32.7091 54.4444 30.0563C53.225 28.1747 51.6447 27.0249 49.9061 27.0249C48.0258 27.0249 46.5126 28.4431 44.812 30.9718C43.9079 32.3153 42.9798 33.9525 41.9377 35.8L40.7904 37.8323C38.4859 41.9185 37.9021 42.8492 36.7498 44.3851C34.7302 47.0746 33.0056 48.094 30.7352 48.094C28.0419 48.094 26.3388 46.9278 25.284 45.1702C24.423 43.7381 24 41.859 24 39.7178L27.933 39.8583Z" fill="white"/>
<path d="M27.101 28.6318C28.9042 25.8524 31.5063 23.9087 34.4908 23.9087C36.2193 23.9087 37.9376 24.4203 39.7318 25.8853C41.6945 27.4871 43.7864 30.1247 46.3961 34.4717L47.3318 36.0317C49.5908 39.795 50.8761 41.7311 51.6282 42.644C52.5956 43.8166 53.2731 44.1661 54.1531 44.1661C56.3855 44.1661 56.9426 42.1148 56.9426 39.7671L60.4121 39.6582C60.4121 42.1122 59.9284 43.9154 59.1054 45.3399C58.3102 46.7176 56.7603 48.094 54.1531 48.094C52.5323 48.094 51.0964 47.7419 49.5085 46.244C48.2879 45.0942 46.8608 43.0518 45.763 41.2157L42.4973 35.7607C40.8588 33.0231 39.3558 30.9819 38.4859 30.0576C37.5501 29.0636 36.3472 27.8632 34.4275 27.8632C32.8739 27.8632 31.5544 28.9534 30.4503 30.6211L27.101 28.6318Z" fill="white"/>
<path d="M34.4276 27.8632C32.8739 27.8632 31.5544 28.9534 30.4503 30.6211C28.889 32.9775 27.933 36.4876 27.933 39.8583C27.933 41.2486 28.2382 42.3161 28.637 42.9619L25.284 45.1702C24.423 43.7381 24 41.859 24 39.7178C24 35.8241 25.0687 31.7657 27.1011 28.6318C28.9042 25.8524 31.5063 23.9087 34.4909 23.9087L34.4276 27.8632Z" fill="white"/>
<path d="M68.0578 24.6733H72.6074L80.3429 38.6679L88.0796 24.6733H92.5305V47.6683H88.8191V30.0447L82.0346 42.2488H78.5524L71.7691 30.0447V47.6683H68.0578V24.6733ZM104.16 33.2471C101.498 33.2471 99.895 35.2503 99.5113 37.7309H108.545C108.359 35.1756 106.885 33.2471 104.16 33.2471ZM95.8316 39.144C95.8316 33.9245 99.2049 30.1258 104.224 30.1258C109.161 30.1258 112.109 33.8764 112.109 39.4226V40.4419H99.5113C99.9583 43.1403 101.749 44.9586 104.636 44.9586C106.939 44.9586 108.379 44.2558 109.744 42.9706L111.715 45.3853C109.858 47.0935 107.495 48.0786 104.504 48.0786C99.0706 48.0786 95.8316 44.1165 95.8316 39.144ZM116.609 33.5763H113.193V30.5373H116.609V25.5116H120.19V30.5373H125.381V33.5763H120.19V41.2789C120.19 43.9089 121.031 44.8434 123.098 44.8434C124.041 44.8434 124.582 44.7623 125.381 44.6294V47.6354C124.385 47.9165 123.436 48.0457 122.408 48.0457C118.542 48.0457 116.609 45.9336 116.609 41.7056V33.5763ZM140.459 36.5317C139.74 34.7159 138.136 33.3788 135.778 33.3788C132.713 33.3788 130.752 35.5529 130.752 39.0946C130.752 42.5477 132.558 44.8269 135.631 44.8269C138.047 44.8269 139.772 43.4214 140.459 41.6727V36.5317ZM144.04 47.6683H140.525V45.2701C139.542 46.6819 137.754 48.0786 134.859 48.0786C130.201 48.0786 127.089 44.1798 127.089 39.0946C127.089 33.9612 130.276 30.1258 135.056 30.1258C137.419 30.1258 139.273 31.0704 140.525 32.7381V30.5373H144.04V47.6683Z" fill="white"/>
</g>
</g>
<defs>
<clipPath id="clip0_954_262">
<rect width="167.905" height="72.1993" fill="white"/>
</clipPath>
<clipPath id="clip1_954_262">
<rect width="120.04" height="24.3831" fill="white" transform="translate(24 23.9087)"/>
</clipPath>
</defs>
</svg>
