<svg width="168" height="73" viewBox="0 0 168 73" fill="none" xmlns="http://www.w3.org/2000/svg">
<g clipPath="url(#clip0_693_1549)">
<path d="M35.9675 20.0171C28.8458 20.0171 23.0189 25.7543 23.0189 32.7664C23.0189 39.7786 28.8458 45.5158 35.9675 45.5158C43.0892 45.5158 48.916 39.814 48.916 32.7664C48.916 25.7189 43.1252 20.0171 35.9675 20.0171ZM35.9675 40.9473C31.5434 40.9473 27.9825 37.3704 27.9825 32.7664C27.9825 28.1625 31.5434 24.5856 35.9675 24.5856C40.3916 24.5856 43.9524 28.1625 43.9524 32.7664C43.9524 37.3704 40.3916 40.9473 35.9675 40.9473Z" fill="white"/>
<path d="M62.0079 27.1001C59.67 27.1001 57.404 28.0209 56.217 29.5791V27.4542H51.5411V52.2446H56.217V43.2847C57.404 44.7367 59.598 45.5158 62.0079 45.5158C67.0433 45.5158 70.9998 41.6202 70.9998 36.308C70.9998 30.9957 67.0433 27.1001 62.0079 27.1001ZM61.2166 41.5139C58.5549 41.5139 56.181 39.4599 56.181 36.308C56.181 33.156 58.5549 31.102 61.2166 31.102C63.8782 31.102 66.252 33.156 66.252 36.308C66.252 39.4599 63.8782 41.5139 61.2166 41.5139Z" fill="white"/>
<path d="M82.0074 27.1001C76.8999 27.1001 72.8715 31.0311 72.8715 36.308C72.8715 41.5848 76.3963 45.5158 82.1513 45.5158C86.8631 45.5158 89.8844 42.718 90.8196 39.5661H86.2516C85.6761 40.8765 84.0576 41.7973 82.1153 41.7973C79.7054 41.7973 77.871 40.1328 77.4394 37.76H91.0354V35.9538C91.0354 31.1374 87.6184 27.1001 82.0074 27.1001ZM77.4754 34.5018C77.9789 32.2707 79.8493 30.8187 82.1153 30.8187C84.5252 30.8187 86.3595 32.3769 86.5753 34.5018H77.4754Z" fill="white"/>
<path d="M103.48 27.1001C101.394 27.1001 99.1998 28.0209 98.1927 29.5437V27.4542H93.5168V45.1617H98.1927V35.6351C98.1927 32.8727 99.7034 31.0666 102.149 31.0666C104.415 31.0666 105.638 32.7665 105.638 35.1393V45.1617H110.314V34.3956C110.314 30.0041 107.58 27.1001 103.48 27.1001Z" fill="white"/>
<path d="M122.29 20.3716L112.111 45.162H117.111L119.269 39.7435H130.85L133.008 45.162H138.08L127.973 20.3716H122.29ZM120.887 35.6354L125.06 25.2588L129.196 35.6354H120.887Z" fill="white"/>
<path d="M144.734 20.3716H139.986V45.162H144.734V20.3716Z" fill="white"/>
</g>
<defs>
<clipPath id="clip0_693_1549">
<rect width="121.869" height="32.4983" fill="white" transform="translate(23.0189 19.8511)"/>
</clipPath>
</defs>
</svg>
