<svg width="168" height="73" viewBox="0 0 168 73" fill="none" xmlns="http://www.w3.org/2000/svg">
<path d="M48.847 25.4833C48.8224 25.3163 48.6747 25.2209 48.5516 25.2209C48.4285 25.2209 45.9913 25.1731 45.9913 25.1731C45.9913 25.1731 43.9479 23.2645 43.751 23.0498C43.554 22.8589 43.1601 22.9066 43.0124 22.9543C43.0124 22.9543 42.6185 23.0736 41.9784 23.2645C41.88 22.9305 41.7076 22.5249 41.4861 22.0955C40.7721 20.7594 39.6889 20.0437 38.4087 20.0437C38.3102 20.0437 38.2364 20.0437 38.1379 20.0675C38.0887 20.0198 38.0641 19.9721 38.0148 19.9482C37.4486 19.3756 36.7346 19.0893 35.873 19.1132C34.2235 19.1609 32.5741 20.33 31.2201 22.3818C30.2845 23.8371 29.5706 25.6503 29.349 27.0579C27.4534 27.6305 26.124 28.0361 26.0747 28.0361C25.1146 28.3224 25.09 28.3463 24.9669 29.229C24.9177 29.897 22.4066 48.7211 22.4066 48.7211L43.4802 52.2521L52.6137 50.0571C52.5891 50.0571 48.8717 25.6503 48.847 25.4833ZM40.9198 23.5985C40.4274 23.7417 39.8858 23.9087 39.295 24.0995C39.295 23.2884 39.1719 22.1432 38.8026 21.1888C40.0582 21.3797 40.6736 22.7635 40.9198 23.5985ZM38.1871 24.4097C37.0793 24.7437 35.873 25.1016 34.6667 25.4594C35.0113 24.195 35.6514 22.9543 36.4392 22.1193C36.7346 21.8092 37.1532 21.4751 37.6209 21.2843C38.1133 22.2147 38.2118 23.5269 38.1871 24.4097ZM35.9222 20.1868C36.3161 20.1868 36.6362 20.2584 36.907 20.4492C36.4638 20.664 36.0207 20.998 35.6268 21.4274C34.5682 22.5249 33.7558 24.2188 33.4357 25.865C32.4264 26.1752 31.4416 26.4615 30.5553 26.7239C31.1462 24.1234 33.3865 20.2584 35.9222 20.1868Z" fill="white"/>
<path d="M48.5513 25.2206C48.4282 25.2206 45.991 25.1728 45.991 25.1728C45.991 25.1728 43.9476 23.2642 43.7507 23.0495C43.6768 22.9779 43.5784 22.9302 43.4799 22.9302V52.2518L52.6134 50.0568C52.6134 50.0568 48.896 25.65 48.8714 25.483C48.8221 25.316 48.6744 25.2206 48.5513 25.2206Z" fill="white"/>
<path d="M38.4088 29.7778L37.3502 33.619C37.3502 33.619 36.1685 33.0941 34.7653 33.1895C32.6973 33.3088 32.6973 34.5733 32.6973 34.8835C32.8204 36.6013 37.4733 36.983 37.7441 41.015C37.9411 44.1881 36.0208 46.3592 33.2143 46.5262C29.8661 46.6932 28.0197 44.7846 28.0197 44.7846L28.7337 41.85C28.7337 41.85 30.6047 43.2099 32.0818 43.1145C33.042 43.0668 33.4112 42.2795 33.362 41.7546C33.2143 39.5119 29.423 39.6551 29.1768 35.9571C28.9799 32.8555 31.0725 29.7301 35.7008 29.4438C37.4979 29.3245 38.4088 29.7778 38.4088 29.7778Z" fill="#0B0B18"/>
<path d="M64.9725 37.9605C63.9139 37.4118 63.3722 36.9346 63.3722 36.2905C63.3722 35.4793 64.1354 34.9544 65.3171 34.9544C66.6958 34.9544 67.9267 35.5032 67.9267 35.5032L68.8868 32.6402C68.8868 32.6402 68.0006 31.9722 65.391 31.9722C61.7474 31.9722 59.2117 34.0001 59.2117 36.8392C59.2117 38.4616 60.3934 39.6783 61.969 40.5611C63.2492 41.253 63.6923 41.754 63.6923 42.4936C63.6923 43.257 63.0522 43.8773 61.8705 43.8773C60.1226 43.8773 58.4485 42.9946 58.4485 42.9946L57.4145 45.8576C57.4145 45.8576 58.9409 46.8596 61.5258 46.8596C65.2679 46.8596 67.9759 45.0703 67.9759 41.8494C67.9513 40.1078 66.5973 38.8672 64.9725 37.9605Z" fill="white"/>
<path d="M79.8911 31.9244C78.0447 31.9244 76.5922 32.7833 75.4844 34.0716L75.4351 34.0478L77.0353 25.936H72.8748L68.8127 46.5971H72.9732L74.3519 39.5351C74.8935 36.863 76.3214 35.2168 77.6508 35.2168C78.5863 35.2168 78.9556 35.8371 78.9556 36.7199C78.9556 37.2686 78.9064 37.9605 78.7833 38.5092L77.2077 46.5971H81.3682L82.9931 38.2468C83.1654 37.3641 83.2885 36.3143 83.2885 35.5986C83.3131 33.3082 82.0822 31.9244 79.8911 31.9244Z" fill="white"/>
<path d="M92.742 31.9248C87.7198 31.9248 84.3962 36.3147 84.3962 41.2056C84.3962 44.331 86.3904 46.86 90.1324 46.86C95.0561 46.86 98.3797 42.5894 98.3797 37.5792C98.4043 34.6923 96.6564 31.9248 92.742 31.9248ZM90.6986 43.7823C89.2707 43.7823 88.6799 42.6132 88.6799 41.134C88.6799 38.8198 89.9108 35.0502 92.1757 35.0502C93.6529 35.0502 94.1452 36.2908 94.1452 37.4837C94.1452 39.965 92.8897 43.7823 90.6986 43.7823Z" fill="white"/>
<path d="M109.064 31.9248C106.258 31.9248 104.658 34.3345 104.658 34.3345H104.608L104.855 32.1634H101.162C100.989 33.6187 100.645 35.8614 100.325 37.5315L97.4197 52.3235H101.58L102.737 46.3351H102.836C102.836 46.3351 103.697 46.86 105.273 46.86C110.172 46.86 113.373 41.9929 113.373 37.0781C113.373 34.3583 112.117 31.9248 109.064 31.9248ZM105.076 43.83C103.993 43.83 103.353 43.2335 103.353 43.2335L104.042 39.464C104.534 36.935 105.889 35.2649 107.341 35.2649C108.621 35.2649 109.015 36.4101 109.015 37.4837C109.015 40.1081 107.415 43.83 105.076 43.83Z" fill="white"/>
<path d="M119.33 26.127C118.001 26.127 116.942 27.1529 116.942 28.465C116.942 29.6579 117.73 30.493 118.912 30.493H118.961C120.266 30.493 121.374 29.6341 121.398 28.1549C121.398 26.9858 120.586 26.127 119.33 26.127Z" fill="white"/>
<path d="M113.496 46.5736H117.656L120.487 32.2588H116.302L113.496 46.5736Z" fill="white"/>
<path d="M131.098 32.2347H128.193L128.341 31.5667C128.587 30.1829 129.424 28.9662 130.827 28.9662C131.566 28.9662 132.157 29.1809 132.157 29.1809L132.969 26.0078C132.969 26.0078 132.255 25.6499 130.704 25.6499C129.227 25.6499 127.75 26.0555 126.618 26.986C125.19 28.155 124.525 29.8489 124.205 31.5667L124.082 32.2347H122.137L121.521 35.2886H123.466L121.251 46.5973H125.411L127.627 35.2886H130.507L131.098 32.2347Z" fill="white"/>
<path d="M141.143 32.2588C141.143 32.2588 138.533 38.6289 137.376 42.1122H137.327C137.253 40.9908 136.293 32.2588 136.293 32.2588H131.911L134.422 45.4046C134.471 45.6909 134.446 45.8818 134.323 46.0726C133.831 46.9792 133.018 47.862 132.058 48.5061C131.27 49.0549 130.384 49.4127 129.695 49.6513L130.852 53.0869C131.689 52.9199 133.461 52.228 134.939 50.8919C136.834 49.1742 138.607 46.5021 140.404 42.8756L145.5 32.2588H141.143Z" fill="white"/>
</svg>
