<svg width="335" height="224" viewBox="0 0 335 224" fill="none" xmlns="http://www.w3.org/2000/svg">
<rect x="140" y="76" width="56" height="56" fill="#F1E9FF"/>
<path fill-rule="evenodd" clip-rule="evenodd" d="M167.5 48.5098C164.577 48.5098 162.196 49.7395 160.029 51.393C158 52.9415 155.761 55.1803 153.142 57.7997L152.958 57.9839C150.277 60.6645 147.94 61.7195 144.334 61.7195C143.882 61.7195 143.312 61.7034 142.668 61.6853C141.016 61.6388 138.88 61.5787 137.012 61.7403C134.278 61.9767 130.861 62.7248 128.268 65.3397C125.695 67.9345 124.965 71.337 124.736 74.0535C124.58 75.9053 124.64 78.0254 124.686 79.6649C124.704 80.3107 124.721 80.8821 124.721 81.333C124.721 84.9393 123.665 87.2762 120.985 89.9568L120.801 90.141C118.181 92.7601 115.942 94.9988 114.394 97.028C112.741 99.1952 111.511 101.576 111.511 104.499C111.511 107.422 112.741 109.803 114.394 111.97C115.943 114 118.182 116.239 120.802 118.859L120.985 119.042C122.723 120.78 123.543 121.907 124.007 122.97C124.46 124.006 124.721 125.318 124.721 127.665C124.721 128.118 124.704 128.688 124.686 129.332C124.64 130.983 124.58 133.119 124.741 134.988C124.978 137.722 125.726 141.138 128.341 143.732C130.936 146.305 134.338 147.034 137.055 147.263C138.906 147.42 141.027 147.36 142.666 147.313C143.312 147.295 143.883 147.279 144.334 147.279C146.632 147.279 147.924 147.51 148.94 147.93C149.956 148.349 151.042 149.099 152.679 150.736C153.028 151.085 153.488 151.578 154.019 152.147C155.216 153.431 156.775 155.101 158.229 156.372C160.436 158.301 163.602 160.489 167.5 160.489C171.399 160.489 174.564 158.301 176.772 156.372C178.226 155.101 179.783 153.432 180.981 152.148C181.512 151.579 181.973 151.085 182.322 150.735C183.958 149.099 185.045 148.349 186.06 147.93C187.077 147.51 188.369 147.279 190.666 147.279C191.118 147.279 191.689 147.295 192.335 147.313C193.974 147.36 196.094 147.42 197.946 147.263C200.662 147.034 204.065 146.305 206.66 143.732C209.275 141.138 210.023 137.722 210.259 134.988C210.421 133.119 210.361 130.983 210.314 129.332C210.296 128.688 210.28 128.117 210.28 127.665C210.28 125.318 210.541 124.006 210.994 122.97C211.458 121.907 212.278 120.78 214.015 119.042L214.199 118.859C216.819 116.239 219.058 114 220.607 111.97C222.26 109.803 223.49 107.422 223.49 104.499C223.49 101.576 222.26 99.1952 220.607 97.028C219.058 94.9988 216.82 92.7601 214.2 90.1411L214.016 89.9568C212.278 88.2189 211.458 87.092 210.994 86.0282C210.541 84.9925 210.28 83.681 210.28 81.333C210.28 80.8813 210.296 80.3115 210.314 79.6679C210.361 78.0167 210.421 75.8793 210.259 74.0105C210.023 71.2769 209.275 67.8604 206.66 65.2674C204.065 62.6941 200.663 61.9642 197.946 61.7348C196.094 61.5785 193.974 61.6385 192.335 61.685C191.689 61.7033 191.118 61.7195 190.666 61.7195C187.059 61.7195 184.723 60.664 182.043 57.9839L181.859 57.7998C179.239 55.1803 177.001 52.9415 174.971 51.393C172.804 49.7395 170.423 48.5098 167.5 48.5098ZM185.532 96.0988C188.083 94.7702 189.074 91.6249 187.745 89.0737C186.416 86.5225 183.271 85.5315 180.72 86.8602C173.283 90.7338 167.215 98.1493 163.206 103.996C162.076 105.644 161.071 107.224 160.208 108.652C159.618 108.153 159.049 107.705 158.524 107.309C157.403 106.465 156.395 105.799 155.658 105.34L154.37 104.579L154.362 104.574C151.834 103.201 148.672 104.137 147.299 106.665C145.927 109.192 146.864 112.354 149.39 113.727C150.139 114.201 151.761 115.245 152.259 115.631C153.996 116.939 155.766 118.581 156.84 120.292C157.849 121.898 159.652 122.829 161.546 122.721C163.439 122.614 165.125 121.484 165.946 119.775C166.213 119.238 166.889 117.912 167.463 116.898C168.479 115.07 169.957 112.57 171.796 109.887C175.599 104.341 180.469 98.7358 185.532 96.0988Z" fill="url(#paint0_linear_18_934)"/>
<path d="M97.5 136C97.0398 136 96.6281 136.287 96.4683 136.718L96.1441 137.595C95.684 138.838 95.5501 139.132 95.3411 139.341C95.1321 139.55 94.838 139.684 93.5946 140.144L92.7182 140.468C92.2866 140.628 92 141.04 92 141.5C92 141.96 92.2866 142.372 92.7182 142.532L93.5946 142.856C94.838 143.316 95.1321 143.45 95.3411 143.659C95.5501 143.868 95.684 144.162 96.1441 145.405L96.4683 146.282C96.6281 146.713 97.0398 147 97.5 147C97.9602 147 98.3719 146.713 98.5317 146.282L98.8559 145.405C99.316 144.162 99.4499 143.868 99.6589 143.659C99.8679 143.45 100.162 143.316 101.405 142.856L102.282 142.532C102.713 142.372 103 141.96 103 141.5C103 141.04 102.713 140.628 102.282 140.468L101.405 140.144C100.162 139.684 99.8679 139.55 99.6589 139.341C99.4499 139.132 99.316 138.838 98.8559 137.595L98.5317 136.718C98.3719 136.287 97.9602 136 97.5 136Z" fill="url(#paint1_linear_18_934)"/>
<path d="M249.5 149C248.71 149 248.004 149.492 247.73 150.232L246.432 153.74C244.67 158.501 243.954 160.32 242.637 161.637C241.32 162.954 239.501 163.67 234.74 165.432L231.232 166.73C230.492 167.004 230 167.71 230 168.5C230 169.29 230.492 169.996 231.232 170.27L234.74 171.568C239.501 173.33 241.32 174.046 242.637 175.363C243.954 176.68 244.67 178.499 246.432 183.26L247.73 186.768C248.004 187.508 248.71 188 249.5 188C250.29 188 250.996 187.508 251.27 186.768L252.568 183.26C254.33 178.499 255.046 176.68 256.363 175.363C257.68 174.046 259.499 173.33 264.26 171.568L267.768 170.27C268.508 169.996 269 169.29 269 168.5C269 167.71 268.508 167.004 267.768 166.73L264.26 165.432C259.499 163.67 257.68 162.954 256.363 161.637C255.046 160.32 254.33 158.501 252.568 153.74L251.27 150.232C250.996 149.492 250.29 149 249.5 149Z" fill="url(#paint2_linear_18_934)"/>
<path d="M77 49C76.3926 49 75.8494 49.3782 75.6386 49.9478L74.6402 52.646C73.2849 56.3086 72.7342 57.7075 71.7209 58.721C70.7076 59.7342 69.3086 60.2848 65.646 61.6403L62.9478 62.6386C62.3782 62.8494 62 63.3926 62 64C62 64.6074 62.3782 65.1506 62.9478 65.3614L65.646 66.3597C69.3086 67.7152 70.7076 68.2658 71.7209 69.279C72.7342 70.2925 73.2849 71.6914 74.6402 75.3539L75.6386 78.0522C75.8494 78.6218 76.3926 79 77 79C77.6074 79 78.1506 78.6218 78.3614 78.0522L79.3597 75.3539C80.7152 71.6914 81.2658 70.2925 82.279 69.279C83.2925 68.2658 84.6914 67.7152 88.3539 66.3597L91.0522 65.3614C91.6218 65.1506 92 64.6074 92 64C92 63.3926 91.6218 62.8494 91.0522 62.6386L88.3539 61.6403C84.6914 60.2848 83.2925 59.7342 82.279 58.721C81.2658 57.7075 80.7152 56.3086 79.3597 52.646L78.3614 49.9478C78.1506 49.3782 77.6074 49 77 49Z" fill="url(#paint3_linear_18_934)"/>
<path d="M189 10C188.676 10 188.386 10.2017 188.274 10.5055L187.741 11.9445C187.019 13.8979 186.725 14.644 186.184 15.1845C185.644 15.7249 184.898 16.0186 182.945 16.7415L181.506 17.2739C181.202 17.3863 181 17.6761 181 18C181 18.3239 181.202 18.6137 181.506 18.7261L182.945 19.2585C184.898 19.9814 185.644 20.2751 186.184 20.8155C186.725 21.356 187.019 22.1021 187.741 24.0554L188.274 25.4945C188.386 25.7983 188.676 26 189 26C189.324 26 189.614 25.7983 189.726 25.4945L190.259 24.0554C190.981 22.1021 191.275 21.356 191.815 20.8155C192.356 20.2751 193.102 19.9814 195.055 19.2585L196.495 18.7261C196.798 18.6137 197 18.3239 197 18C197 17.6761 196.798 17.3863 196.495 17.2739L195.055 16.7415C193.102 16.0186 192.356 15.7249 191.815 15.1845C191.275 14.644 190.981 13.8979 190.259 11.9445L189.726 10.5055C189.614 10.2017 189.324 10 189 10Z" fill="url(#paint4_linear_18_934)"/>
<path d="M152.5 184C152.075 184 151.695 184.265 151.547 184.663L150.848 186.552C149.899 189.116 149.514 190.095 148.805 190.805C148.095 191.514 147.116 191.899 144.552 192.848L142.663 193.547C142.265 193.695 142 194.075 142 194.5C142 194.925 142.265 195.305 142.663 195.453L144.552 196.152C147.116 197.101 148.095 197.486 148.805 198.195C149.514 198.905 149.899 199.884 150.848 202.448L151.547 204.337C151.695 204.735 152.075 205 152.5 205C152.925 205 153.305 204.735 153.453 204.337L154.152 202.448C155.101 199.884 155.486 198.905 156.195 198.195C156.905 197.486 157.884 197.101 160.448 196.152L162.337 195.453C162.735 195.305 163 194.925 163 194.5C163 194.075 162.735 193.695 162.337 193.547L160.448 192.848C157.884 191.899 156.905 191.514 156.195 190.805C155.486 190.095 155.101 189.116 154.152 186.552L153.453 184.663C153.305 184.265 152.925 184 152.5 184Z" fill="url(#paint5_linear_18_934)"/>
<path d="M243.5 84C243.04 84 242.628 84.2866 242.468 84.7183L242.144 85.5945C241.684 86.8379 241.55 87.132 241.341 87.3411C241.132 87.5501 240.838 87.684 239.595 88.1441L238.718 88.4684C238.287 88.6281 238 89.0397 238 89.5C238 89.9603 238.287 90.3719 238.718 90.5316L239.595 90.8559C240.838 91.316 241.132 91.4499 241.341 91.6589C241.55 91.868 241.684 92.1621 242.144 93.4055L242.468 94.2817C242.628 94.7134 243.04 95 243.5 95C243.96 95 244.372 94.7134 244.532 94.2817L244.856 93.4055C245.316 92.1621 245.45 91.868 245.659 91.6589C245.868 91.4499 246.162 91.316 247.405 90.8559L248.282 90.5316C248.713 90.3719 249 89.9603 249 89.5C249 89.0397 248.713 88.6281 248.282 88.4684L247.405 88.1441C246.162 87.684 245.868 87.5501 245.659 87.3411C245.45 87.132 245.316 86.8379 244.856 85.5945L244.532 84.7183C244.372 84.2866 243.96 84 243.5 84Z" fill="url(#paint6_linear_18_934)"/>
<defs>
<linearGradient id="paint0_linear_18_934" x1="111.511" y1="104.499" x2="223.49" y2="104.499" gradientUnits="userSpaceOnUse">
<stop stop-color="#6C03FF"/>
<stop offset="1" stop-color="#9A3DFF"/>
</linearGradient>
<linearGradient id="paint1_linear_18_934" x1="92" y1="141.5" x2="103" y2="141.5" gradientUnits="userSpaceOnUse">
<stop stop-color="#6C03FF"/>
<stop offset="1" stop-color="#9A3DFF"/>
</linearGradient>
<linearGradient id="paint2_linear_18_934" x1="230" y1="168.5" x2="269" y2="168.5" gradientUnits="userSpaceOnUse">
<stop stop-color="#6C03FF"/>
<stop offset="1" stop-color="#9A3DFF"/>
</linearGradient>
<linearGradient id="paint3_linear_18_934" x1="62" y1="64" x2="92" y2="64" gradientUnits="userSpaceOnUse">
<stop stop-color="#6C03FF"/>
<stop offset="1" stop-color="#9A3DFF"/>
</linearGradient>
<linearGradient id="paint4_linear_18_934" x1="181" y1="18" x2="197" y2="18" gradientUnits="userSpaceOnUse">
<stop stop-color="#6C03FF"/>
<stop offset="1" stop-color="#9A3DFF"/>
</linearGradient>
<linearGradient id="paint5_linear_18_934" x1="142" y1="194.5" x2="163" y2="194.5" gradientUnits="userSpaceOnUse">
<stop stop-color="#6C03FF"/>
<stop offset="1" stop-color="#9A3DFF"/>
</linearGradient>
<linearGradient id="paint6_linear_18_934" x1="238" y1="89.5" x2="249" y2="89.5" gradientUnits="userSpaceOnUse">
<stop stop-color="#6C03FF"/>
<stop offset="1" stop-color="#9A3DFF"/>
</linearGradient>
</defs>
</svg>
