<svg width="168" height="73" viewBox="0 0 168 73" fill="none" xmlns="http://www.w3.org/2000/svg">
<g clipPath="url(#clip0_693_1539)">
<path d="M51.7517 42.1337L51.7347 42.0795L62.5319 32.1948V27.4321H45.2094V32.1948H55.5562L55.5732 32.2404L44.8815 42.1337V46.8965H62.7058V42.1337H51.7517Z" fill="#FFFDF9"/>
<path d="M73.3385 26.979C71.3404 26.979 69.712 27.2804 68.4532 27.8831C67.2809 28.4083 66.2931 29.2737 65.6184 30.3671C64.9731 31.4676 64.5678 32.6922 64.4293 33.9605L69.6853 34.6991C69.8754 33.5793 70.2558 32.7855 70.826 32.3178C71.4745 31.8286 72.2735 31.5814 73.0847 31.6191C74.1514 31.6191 74.9252 31.9043 75.4063 32.4746C75.8826 33.045 76.125 33.835 76.125 34.8759V35.395H71.0713C68.4989 35.395 66.6509 35.9653 65.5273 37.1061C64.4036 38.2469 63.8428 39.7527 63.8447 41.6235C63.8447 43.54 64.4055 44.966 65.5273 45.9013C66.6489 46.8369 68.0597 47.3017 69.7596 47.2959C71.868 47.2959 73.4898 46.5707 74.6248 45.12C75.2951 44.2284 75.7738 43.208 76.0307 42.1226H76.2219L76.9464 46.8852H81.7091V34.8246C81.7091 32.332 81.0521 30.4013 79.7384 29.0324C78.4245 27.6635 76.2913 26.979 73.3385 26.979ZM75.0041 41.846C74.2483 42.4762 73.2589 42.79 72.0268 42.79C71.0113 42.79 70.3061 42.6122 69.9107 42.2567C69.7181 42.0884 69.5646 41.8799 69.4616 41.6457C69.3586 41.4116 69.3083 41.1577 69.3147 40.902C69.3032 40.6609 69.3414 40.4199 69.4261 40.1939C69.5109 39.9679 69.6408 39.7615 69.8079 39.5873C69.9886 39.4178 70.2019 39.2867 70.4348 39.2019C70.6677 39.1171 70.9152 39.0803 71.1627 39.0939H76.1335V39.4219C76.1437 39.8854 76.047 40.3451 75.8513 40.7655C75.6553 41.1858 75.3655 41.5555 75.0041 41.846Z" fill="#FFFDF9"/>
<path d="M110.506 27.4321H104.879V46.8991H110.506V27.4321Z" fill="#FFFDF9"/>
<path d="M143.726 27.4321C142.137 27.4321 140.884 27.993 139.967 29.1148C139.309 29.9209 138.809 31.112 138.467 32.6882H138.302L137.566 27.4321H132.76V46.8965H138.387V36.9147C138.387 35.6561 138.682 34.6912 139.271 34.02C139.861 33.3489 140.948 33.0133 142.534 33.0133H144.67V27.4321H143.726Z" fill="#FFFDF9"/>
<path d="M127.182 28.0682C125.868 27.2868 124.211 26.897 122.211 26.8989C119.063 26.8989 116.599 27.7954 114.819 29.5883C113.039 31.3812 112.15 33.8528 112.15 37.0032C112.104 38.9079 112.52 40.7953 113.362 42.5045C114.132 44.0277 115.332 45.2918 116.813 46.1406C118.303 47.0021 120.076 47.4337 122.131 47.4354C123.909 47.4354 125.394 47.1617 126.586 46.6142C127.707 46.1224 128.683 45.3516 129.421 44.3755C130.124 43.4171 130.645 42.3385 130.961 41.1927L126.113 39.8351C125.909 40.5803 125.516 41.26 124.972 41.8087C124.424 42.3562 123.507 42.63 122.22 42.63C120.689 42.63 119.548 42.1918 118.797 41.3153C118.253 40.6822 117.911 39.7781 117.759 38.606H131.035C131.089 38.0584 131.118 37.5993 131.118 37.2285V36.0165C131.15 34.3882 130.813 32.7737 130.134 31.2937C129.498 29.9455 128.469 28.8212 127.182 28.0682ZM122.049 31.539C124.33 31.539 125.624 32.6617 125.93 34.9071H117.859C117.987 34.1579 118.298 33.4517 118.763 32.8509C119.503 31.9744 120.598 31.5371 122.049 31.539Z" fill="#FFFDF9"/>
<path d="M107.753 19.5868C107.329 19.5724 106.908 19.6432 106.512 19.7951C106.117 19.947 105.756 20.1768 105.451 20.4709C105.151 20.7678 104.915 21.1239 104.76 21.5166C104.604 21.9094 104.532 22.3302 104.547 22.7524C104.532 23.1773 104.605 23.6007 104.76 23.9963C104.916 24.392 105.152 24.7512 105.452 25.0518C105.753 25.3523 106.113 25.5875 106.508 25.743C106.904 25.8984 107.328 25.9706 107.753 25.955C108.175 25.971 108.596 25.8988 108.989 25.7432C109.381 25.5875 109.737 25.3518 110.034 25.0509C110.329 24.747 110.558 24.3867 110.71 23.9917C110.861 23.5967 110.931 23.1751 110.915 22.7524C110.935 22.3321 110.867 21.9124 110.714 21.52C110.563 21.1277 110.331 20.7714 110.033 20.4737C109.736 20.1761 109.38 19.9438 108.988 19.7915C108.595 19.6393 108.176 19.5706 107.756 19.5896L107.753 19.5868Z" fill="#FFFDF9"/>
<path d="M96.1312 26.8989C94.2149 26.8989 92.6749 27.5007 91.5113 28.7042C90.6498 29.5959 90.0179 30.9268 89.6147 32.6968H89.435L88.6994 27.4408H83.8937V52.4919H89.5205V42.1737H89.726C89.8977 42.8617 90.1384 43.5305 90.4446 44.17C90.9206 45.2117 91.7012 46.0848 92.6834 46.674C93.7017 47.2297 94.8488 47.5063 96.0085 47.4754C98.3644 47.4754 100.158 46.5581 101.39 44.7232C102.622 42.8886 103.238 40.3285 103.238 37.0432C103.238 33.8699 102.642 31.3859 101.45 29.5911C100.258 27.7963 98.4851 26.8989 96.1312 26.8989ZM96.7017 41.0044C96.0457 41.9551 95.0191 42.4304 93.6216 42.4304C93.0455 42.457 92.4711 42.3459 91.9465 42.1064C91.4217 41.8668 90.9617 41.5057 90.6044 41.0529C89.8761 40.1384 89.513 38.8864 89.5149 37.297V36.9262C89.5149 35.312 89.878 34.0762 90.6044 33.2187C91.3306 32.3613 92.3363 31.9373 93.6216 31.9468C95.0438 31.9468 96.077 32.3983 96.7216 33.3014C97.3662 34.2045 97.6885 35.4641 97.6885 37.0802C97.6923 38.7514 97.3652 40.0595 96.7073 41.0044H96.7017Z" fill="#FFFDF9"/>
<path d="M42.7028 42.1338H23.2357V46.9022H42.7028V42.1338Z" fill="white"/>
</g>
<defs>
<clipPath id="clip0_693_1539">
<rect width="121.435" height="33.0303" fill="white" transform="translate(23.2358 19.585)"/>
</clipPath>
</defs>
</svg>
