<svg width="32" height="32" viewBox="0 0 32 32" fill="none" xmlns="http://www.w3.org/2000/svg">
<path d="M8.6664 18.6668H4C3.6464 18.6665 3.30738 18.5259 3.05735 18.2758C2.80732 18.0258 2.66672 17.6868 2.6664 17.3332V9.33319C2.66682 8.97967 2.80748 8.64075 3.05749 8.3908C3.30751 8.14086 3.64647 8.00031 4 7.99999H17.3332C17.6868 8.0001 18.0259 8.14058 18.2759 8.39057C18.526 8.64056 18.6666 8.9796 18.6668 9.33319V15.4464L21.3332 14.3792V9.33319C21.3332 7.12479 19.5428 5.33319 17.3332 5.33319H4C1.7908 5.33319 0 7.12479 0 9.33319V17.3332C0 19.5428 1.7916 21.3332 4 21.3332H8.6664V18.6668ZM13.3336 25.3332H16V32H13.3336V25.3332Z" fill="#F3F6FA"/>
<path d="M18.4765 17.6768C17.1145 18.2212 14.8009 18.6668 13.3337 18.6668H10.6665V26.6668H13.3337C14.8009 26.6668 17.1145 27.112 18.4765 27.6564L29.3333 32V13.3332L18.4765 17.6768ZM16.0001 24.2604C15.0533 24.0988 14.1173 24 13.3337 24V21.3332C14.1157 21.3332 15.0533 21.2344 16.0001 21.0732V24.2604ZM26.6669 28.0612L19.4661 25.1808C19.203 25.0776 18.9364 24.9834 18.6669 24.8984V20.4348C18.9481 20.3436 19.2189 20.25 19.4661 20.1524L26.6669 17.2724V28.0612ZM29.3333 25.3332L32.0001 24V21.3332L29.3333 20V25.3332ZM7.99927 0V1.3332L9.66607 2V5.3332H11.6661V2L13.3337 1.3332V0H7.99927Z" fill="#F3F6FA"/>
<path d="M14.0001 13.3336C14.7366 13.3336 15.3337 12.7365 15.3337 12C15.3337 11.2635 14.7366 10.6664 14.0001 10.6664C13.2636 10.6664 12.6665 11.2635 12.6665 12C12.6665 12.7365 13.2636 13.3336 14.0001 13.3336Z" fill="#F3F6FA"/>
<path d="M8.6663 12C8.66645 12.1751 8.63209 12.3485 8.56517 12.5103C8.49825 12.6721 8.40009 12.8191 8.2763 12.9429C8.15252 13.0668 8.00553 13.165 7.84375 13.2319C7.68198 13.2989 7.50859 13.3333 7.3335 13.3332C6.5959 13.3332 5.9999 12.7372 5.9999 12C5.9999 11.2628 6.5959 10.6668 7.3335 10.6668C7.50859 10.6667 7.68198 10.7011 7.84375 10.7681C8.00553 10.8351 8.15252 10.9333 8.2763 11.0571C8.40009 11.1809 8.49825 11.3279 8.56517 11.4897C8.63209 11.6515 8.66645 11.8249 8.6663 12ZM7.9999 14.6668H13.3335V16.6668H7.9999V14.6668ZM7.3335 5.33321H5.3335V2.66681H6.6663L7.3335 5.33321ZM13.9999 5.33321H15.9999V2.66681H14.6663L13.9999 5.33321Z" fill="#F3F6FA"/>
</svg>

<svg xmlns="http://www.w3.org/2000/svg" width="28" height="32" viewBox="0 0 25 30" fill="none" class="transition-transform duration-300 group-hover:scale-105" aria-hidden="true"><path d="M9.48723 5.77502L10.3404 8.1444C10.8086 9.44331 11.5575 10.623 12.5338 11.5993C13.5101 12.5756 14.6898 13.3245 15.9887 13.7926L18.358 14.6458C18.4048 14.663 18.4452 14.6941 18.4738 14.735C18.5023 14.7758 18.5176 14.8244 18.5176 14.8743C18.5176 14.9241 18.5023 14.9727 18.4738 15.0136C18.4452 15.0544 18.4048 15.0856 18.358 15.1027L15.9887 15.9559C14.6898 16.424 13.5101 17.173 12.5338 18.1493C11.5575 19.1256 10.8086 20.3052 10.3404 21.6041L9.48723 23.9735C9.47007 24.0203 9.43897 24.0607 9.39811 24.0892C9.35726 24.1178 9.30863 24.1331 9.25879 24.1331C9.20896 24.1331 9.16033 24.1178 9.11948 24.0892C9.07862 24.0607 9.04751 24.0203 9.03036 23.9735L8.17717 21.6041C7.70902 20.3052 6.9601 19.1256 5.9838 18.1493C5.00749 17.173 3.82784 16.424 2.52892 15.9559L0.159543 15.1027C0.112757 15.0856 0.0723678 15.0544 0.0438345 15.0136C0.0153011 14.9727 0 14.9241 0 14.8743C0 14.8244 0.0153011 14.7758 0.0438345 14.735C0.0723678 14.6941 0.112757 14.663 0.159543 14.6458L2.52892 13.7926C3.82784 13.3245 5.00749 12.5756 5.9838 11.5993C6.9601 10.623 7.70902 9.44331 8.17717 8.1444L9.03036 5.77502C9.04704 5.72776 9.07797 5.68684 9.11888 5.65789C9.15979 5.62895 9.20868 5.6134 9.25879 5.6134C9.30891 5.6134 9.3578 5.62895 9.39871 5.65789C9.43962 5.68684 9.47055 5.72776 9.48723 5.77502ZM20.1526 0.0810833L20.585 1.28065C20.8223 1.9383 21.2016 2.53557 21.696 3.02994C22.1904 3.52432 22.7876 3.90363 23.4453 4.1409L24.6449 4.57333C24.6686 4.58199 24.6892 4.59774 24.7037 4.61846C24.7182 4.63918 24.7259 4.66386 24.7259 4.68915C24.7259 4.71444 24.7182 4.73912 24.7037 4.75983C24.6892 4.78055 24.6686 4.79631 24.6449 4.80496L23.4453 5.2374C22.7876 5.47466 22.1904 5.85398 21.696 6.34835C21.2016 6.84272 20.8223 7.43999 20.585 8.09765L20.1526 9.29721C20.144 9.32097 20.1282 9.3415 20.1075 9.35601C20.0868 9.37051 20.0621 9.37829 20.0368 9.37829C20.0115 9.37829 19.9868 9.37051 19.9661 9.35601C19.9454 9.3415 19.9296 9.32097 19.921 9.29721L19.4885 8.09765C19.2513 7.43999 18.872 6.84272 18.3776 6.34835C17.8832 5.85398 17.286 5.47466 16.6283 5.2374L15.4287 4.80496C15.405 4.79631 15.3844 4.78055 15.3699 4.75983C15.3554 4.73912 15.3476 4.71444 15.3476 4.68915C15.3476 4.66386 15.3554 4.63918 15.3699 4.61846C15.3844 4.59774 15.405 4.58199 15.4287 4.57333L16.6283 4.1409C17.286 3.90363 17.8832 3.52432 18.3776 3.02994C18.872 2.53557 19.2513 1.9383 19.4885 1.28065L19.921 0.0810833C19.9296 0.0573185 19.9454 0.036791 19.9661 0.0222858C19.9868 0.00778061 20.0115 0 20.0368 0C20.0621 0 20.0868 0.00778061 20.1075 0.0222858C20.1282 0.036791 20.144 0.0573185 20.1526 0.0810833ZM20.1526 20.4524L20.585 21.652C20.8223 22.3096 21.2016 22.9069 21.696 23.4013C22.1904 23.8956 22.7876 24.2749 23.4453 24.5122L24.6449 24.9446C24.6686 24.9533 24.6892 24.9691 24.7037 24.9898C24.7182 25.0105 24.7259 25.0352 24.7259 25.0605C24.7259 25.0857 24.7182 25.1104 24.7037 25.1311C24.6892 25.1519 24.6686 25.1676 24.6449 25.1763L23.4453 25.6087C22.7876 25.846 22.1904 26.2253 21.696 26.7197C21.2016 27.214 20.8223 27.8113 20.585 28.469L20.1526 29.6685C20.144 29.6923 20.1282 29.7128 20.1075 29.7273C20.0868 29.7418 20.0621 29.7496 20.0368 29.7496C20.0115 29.7496 19.9868 29.7418 19.9661 29.7273C19.9454 29.7128 19.9296 29.6923 19.921 29.6685L19.4885 28.469C19.2513 27.8113 18.872 27.214 18.3776 26.7197C17.8832 26.2253 17.286 25.846 16.6283 25.6087L15.4287 25.1763C15.405 25.1676 15.3844 25.1519 15.3699 25.1311C15.3554 25.1104 15.3476 25.0857 15.3476 25.0605C15.3476 25.0352 15.3554 25.0105 15.3699 24.9898C15.3844 24.9691 15.405 24.9533 15.4287 24.9446L16.6283 24.5122C17.286 24.2749 17.8832 23.8956 18.3776 23.4013C18.872 22.9069 19.2513 22.3096 19.4885 21.652L19.921 20.4524C19.9603 20.344 20.1144 20.344 20.1526 20.4524Z" fill="white"></path></svg>